<mxfile host="app.diagrams.net" modified="2023-10-29T12:42:40.696Z" agent="Mozilla/5.0 (Windows NT 10.0; Win64; x64) AppleWebKit/537.36 (KHTML, like Gecko) Chrome/118.0.0.0 Safari/537.36" etag="Q6RvauzEkhIP-5jXCCNf" version="21.7.2" type="github">
  <diagram name="第 1 页" id="vgD5ARSbaM8UixqlWzuH">
    <mxGraphModel dx="1820" dy="954" grid="1" gridSize="10" guides="1" tooltips="1" connect="1" arrows="1" fold="1" page="1" pageScale="1" pageWidth="827" pageHeight="1169" math="0" shadow="0">
      <root>
        <mxCell id="0" />
        <mxCell id="1" parent="0" />
        <mxCell id="M6g0nOuOq8iYQuEYcsVi-57" value="&lt;font face=&quot;宋体&quot; style=&quot;font-size: 36px;&quot;&gt;客户端&lt;br&gt;&lt;br&gt;&lt;br&gt;&lt;br&gt;&lt;br&gt;&lt;br&gt;&lt;br&gt;&lt;br&gt;&lt;br&gt;&lt;br&gt;&lt;br&gt;&lt;br&gt;&lt;br&gt;&lt;br&gt;&lt;br&gt;&lt;br&gt;&lt;br&gt;&lt;br&gt;&lt;br&gt;&lt;br&gt;&lt;/font&gt;" style="rounded=0;whiteSpace=wrap;html=1;fillColor=#fff2cc;strokeColor=#d6b656;" vertex="1" parent="1">
          <mxGeometry x="70" y="40" width="270" height="920" as="geometry" />
        </mxCell>
        <mxCell id="M6g0nOuOq8iYQuEYcsVi-1" value="&lt;font style=&quot;font-size: 36px;&quot;&gt;&lt;span style=&quot;font-family: 宋体;&quot;&gt;基于图模型的大数据分析系统&lt;br&gt;&lt;br&gt;&lt;br&gt;&lt;br&gt;&lt;br&gt;&lt;br&gt;&lt;br&gt;&lt;br&gt;&lt;br&gt;&lt;br&gt;&lt;br&gt;&lt;br&gt;&lt;br&gt;&lt;br&gt;&lt;br&gt;&lt;br&gt;&lt;br&gt;&lt;br&gt;&lt;br&gt;&lt;br&gt;&lt;/span&gt;&lt;/font&gt;" style="rounded=0;whiteSpace=wrap;html=1;fillColor=#dae8fc;strokeColor=#6c8ebf;arcSize=15;" vertex="1" parent="1">
          <mxGeometry x="360" y="40" width="850" height="920" as="geometry" />
        </mxCell>
        <mxCell id="M6g0nOuOq8iYQuEYcsVi-2" value="&lt;font style=&quot;&quot;&gt;&lt;font style=&quot;font-size: 24px;&quot;&gt;数据采集与处理&lt;br&gt;&lt;br&gt;&lt;br&gt;&lt;br&gt;&lt;br&gt;&lt;/font&gt;&lt;br&gt;&lt;br&gt;&lt;/font&gt;" style="rounded=0;whiteSpace=wrap;html=1;fillColor=#d5e8d4;strokeColor=#82b366;" vertex="1" parent="1">
          <mxGeometry x="410" y="120" width="380" height="220" as="geometry" />
        </mxCell>
        <mxCell id="M6g0nOuOq8iYQuEYcsVi-4" value="&lt;font style=&quot;font-size: 20px;&quot;&gt;数据采集脚本&lt;/font&gt;" style="rounded=1;whiteSpace=wrap;html=1;fillColor=#f8cecc;strokeColor=#b85450;fontSize=20;" vertex="1" parent="1">
          <mxGeometry x="440" y="205" width="140" height="50" as="geometry" />
        </mxCell>
        <mxCell id="M6g0nOuOq8iYQuEYcsVi-97" style="edgeStyle=orthogonalEdgeStyle;rounded=0;orthogonalLoop=1;jettySize=auto;html=1;exitX=0.5;exitY=0;exitDx=0;exitDy=0;entryX=0.5;entryY=1;entryDx=0;entryDy=0;" edge="1" parent="1" source="M6g0nOuOq8iYQuEYcsVi-6" target="M6g0nOuOq8iYQuEYcsVi-96">
          <mxGeometry relative="1" as="geometry" />
        </mxCell>
        <mxCell id="M6g0nOuOq8iYQuEYcsVi-6" value="&lt;font style=&quot;&quot;&gt;&lt;font style=&quot;font-size: 24px;&quot;&gt;图数据分析&lt;br&gt;&lt;br&gt;&lt;br&gt;&lt;br&gt;&lt;br&gt;&lt;br&gt;&lt;br&gt;&lt;/font&gt;&lt;br&gt;&lt;/font&gt;" style="rounded=0;whiteSpace=wrap;html=1;fillColor=#d5e8d4;strokeColor=#82b366;" vertex="1" parent="1">
          <mxGeometry x="410" y="690" width="730" height="250" as="geometry" />
        </mxCell>
        <mxCell id="M6g0nOuOq8iYQuEYcsVi-10" value="&lt;font style=&quot;&quot;&gt;&lt;font style=&quot;font-size: 24px;&quot;&gt;图数据管理&lt;br&gt;&lt;/font&gt;&lt;br&gt;&lt;br&gt;&lt;br&gt;&lt;br&gt;&lt;br&gt;&lt;br&gt;&lt;br&gt;&lt;br&gt;&lt;br&gt;&lt;br&gt;&lt;br&gt;&lt;/font&gt;" style="rounded=0;whiteSpace=wrap;html=1;fillColor=#d5e8d4;strokeColor=#82b366;" vertex="1" parent="1">
          <mxGeometry x="410" y="410" width="380" height="235" as="geometry" />
        </mxCell>
        <mxCell id="M6g0nOuOq8iYQuEYcsVi-92" style="edgeStyle=orthogonalEdgeStyle;rounded=0;orthogonalLoop=1;jettySize=auto;html=1;exitX=1;exitY=0.5;exitDx=0;exitDy=0;entryX=0;entryY=0.5;entryDx=0;entryDy=0;" edge="1" parent="1" source="M6g0nOuOq8iYQuEYcsVi-12" target="M6g0nOuOq8iYQuEYcsVi-5">
          <mxGeometry relative="1" as="geometry" />
        </mxCell>
        <mxCell id="M6g0nOuOq8iYQuEYcsVi-12" value="图数据提取" style="rounded=1;whiteSpace=wrap;html=1;fillColor=#f8cecc;strokeColor=#b85450;fontSize=20;" vertex="1" parent="1">
          <mxGeometry x="630" y="205" width="140" height="50" as="geometry" />
        </mxCell>
        <mxCell id="M6g0nOuOq8iYQuEYcsVi-20" value="&lt;font style=&quot;font-size: 20px;&quot;&gt;实体查询&lt;/font&gt;" style="rounded=1;whiteSpace=wrap;html=1;fillColor=#f8cecc;strokeColor=#b85450;fontSize=20;" vertex="1" parent="1">
          <mxGeometry x="450" y="800" width="140" height="50" as="geometry" />
        </mxCell>
        <mxCell id="M6g0nOuOq8iYQuEYcsVi-93" style="edgeStyle=orthogonalEdgeStyle;rounded=0;orthogonalLoop=1;jettySize=auto;html=1;exitX=1;exitY=0.5;exitDx=0;exitDy=0;entryX=0;entryY=0.5;entryDx=0;entryDy=0;" edge="1" parent="1" source="M6g0nOuOq8iYQuEYcsVi-25" target="M6g0nOuOq8iYQuEYcsVi-5">
          <mxGeometry relative="1" as="geometry">
            <Array as="points">
              <mxPoint x="830" y="505" />
              <mxPoint x="830" y="230" />
            </Array>
          </mxGeometry>
        </mxCell>
        <mxCell id="M6g0nOuOq8iYQuEYcsVi-25" value="&lt;font style=&quot;font-size: 20px;&quot;&gt;图数据管理后端&lt;/font&gt;" style="rounded=1;whiteSpace=wrap;html=1;fillColor=#f8cecc;strokeColor=#b85450;fontSize=20;" vertex="1" parent="1">
          <mxGeometry x="527.5" y="480" width="140" height="50" as="geometry" />
        </mxCell>
        <mxCell id="M6g0nOuOq8iYQuEYcsVi-54" value="" style="edgeStyle=orthogonalEdgeStyle;rounded=0;orthogonalLoop=1;jettySize=auto;html=1;" edge="1" parent="1" source="M6g0nOuOq8iYQuEYcsVi-43" target="M6g0nOuOq8iYQuEYcsVi-53">
          <mxGeometry relative="1" as="geometry" />
        </mxCell>
        <mxCell id="M6g0nOuOq8iYQuEYcsVi-43" value="&lt;font style=&quot;font-size: 20px;&quot;&gt;采集脚本执行配置&lt;/font&gt;" style="rounded=1;whiteSpace=wrap;html=1;fillColor=#f8cecc;strokeColor=#b85450;fontSize=20;" vertex="1" parent="1">
          <mxGeometry x="440" y="275" width="140" height="50" as="geometry" />
        </mxCell>
        <mxCell id="M6g0nOuOq8iYQuEYcsVi-44" style="edgeStyle=orthogonalEdgeStyle;rounded=0;orthogonalLoop=1;jettySize=auto;html=1;exitX=1;exitY=0.5;exitDx=0;exitDy=0;entryX=0;entryY=0.5;entryDx=0;entryDy=0;" edge="1" parent="1" source="M6g0nOuOq8iYQuEYcsVi-45" target="M6g0nOuOq8iYQuEYcsVi-25">
          <mxGeometry relative="1" as="geometry" />
        </mxCell>
        <mxCell id="M6g0nOuOq8iYQuEYcsVi-45" value="&lt;font style=&quot;font-size: 24px;&quot;&gt;浏览器&lt;br&gt;&lt;/font&gt;" style="rounded=1;whiteSpace=wrap;html=1;fillColor=#dae8fc;strokeColor=#6c8ebf;" vertex="1" parent="1">
          <mxGeometry x="100" y="430" width="210" height="90" as="geometry" />
        </mxCell>
        <mxCell id="M6g0nOuOq8iYQuEYcsVi-68" style="edgeStyle=orthogonalEdgeStyle;rounded=0;orthogonalLoop=1;jettySize=auto;html=1;exitX=1;exitY=0.5;exitDx=0;exitDy=0;entryX=0;entryY=0.5;entryDx=0;entryDy=0;" edge="1" parent="1" source="M6g0nOuOq8iYQuEYcsVi-47" target="M6g0nOuOq8iYQuEYcsVi-28">
          <mxGeometry relative="1" as="geometry" />
        </mxCell>
        <mxCell id="M6g0nOuOq8iYQuEYcsVi-47" value="&lt;font style=&quot;font-size: 24px;&quot;&gt;其他系统&lt;br&gt;&lt;/font&gt;" style="rounded=1;whiteSpace=wrap;html=1;fillColor=#dae8fc;strokeColor=#6c8ebf;" vertex="1" parent="1">
          <mxGeometry x="100" y="570" width="210" height="85" as="geometry" />
        </mxCell>
        <mxCell id="M6g0nOuOq8iYQuEYcsVi-48" style="edgeStyle=orthogonalEdgeStyle;rounded=0;orthogonalLoop=1;jettySize=auto;html=1;exitX=1;exitY=0.5;exitDx=0;exitDy=0;" edge="1" parent="1" source="M6g0nOuOq8iYQuEYcsVi-49" target="M6g0nOuOq8iYQuEYcsVi-4">
          <mxGeometry relative="1" as="geometry" />
        </mxCell>
        <mxCell id="M6g0nOuOq8iYQuEYcsVi-50" style="edgeStyle=orthogonalEdgeStyle;rounded=0;orthogonalLoop=1;jettySize=auto;html=1;exitX=1;exitY=0.5;exitDx=0;exitDy=0;entryX=0;entryY=0.5;entryDx=0;entryDy=0;" edge="1" parent="1" source="M6g0nOuOq8iYQuEYcsVi-49" target="M6g0nOuOq8iYQuEYcsVi-43">
          <mxGeometry relative="1" as="geometry" />
        </mxCell>
        <mxCell id="M6g0nOuOq8iYQuEYcsVi-49" value="&lt;font style=&quot;font-size: 24px;&quot;&gt;浏览器&lt;br&gt;&lt;/font&gt;" style="rounded=1;whiteSpace=wrap;html=1;fillColor=#dae8fc;strokeColor=#6c8ebf;" vertex="1" parent="1">
          <mxGeometry x="100" y="220" width="210" height="90" as="geometry" />
        </mxCell>
        <mxCell id="M6g0nOuOq8iYQuEYcsVi-55" value="" style="edgeStyle=orthogonalEdgeStyle;rounded=0;orthogonalLoop=1;jettySize=auto;html=1;" edge="1" parent="1" source="M6g0nOuOq8iYQuEYcsVi-53" target="M6g0nOuOq8iYQuEYcsVi-12">
          <mxGeometry relative="1" as="geometry" />
        </mxCell>
        <mxCell id="M6g0nOuOq8iYQuEYcsVi-53" value="脚本执行" style="rounded=1;whiteSpace=wrap;html=1;fillColor=#f8cecc;strokeColor=#b85450;fontSize=20;" vertex="1" parent="1">
          <mxGeometry x="630" y="275" width="140" height="50" as="geometry" />
        </mxCell>
        <mxCell id="M6g0nOuOq8iYQuEYcsVi-5" value="&lt;font style=&quot;&quot;&gt;&lt;font style=&quot;font-size: 24px;&quot;&gt;图数据库&lt;br&gt;&lt;br&gt;&lt;/font&gt;&lt;font style=&quot;font-size: 24px;&quot;&gt;HugeGraph&lt;/font&gt;&lt;br&gt;&lt;/font&gt;" style="rounded=0;whiteSpace=wrap;html=1;fillColor=#d5e8d4;strokeColor=#82b366;" vertex="1" parent="1">
          <mxGeometry x="880" y="120" width="260" height="220" as="geometry" />
        </mxCell>
        <mxCell id="M6g0nOuOq8iYQuEYcsVi-95" style="edgeStyle=orthogonalEdgeStyle;rounded=0;orthogonalLoop=1;jettySize=auto;html=1;exitX=1;exitY=0.5;exitDx=0;exitDy=0;entryX=0;entryY=0.5;entryDx=0;entryDy=0;" edge="1" parent="1" source="M6g0nOuOq8iYQuEYcsVi-28" target="M6g0nOuOq8iYQuEYcsVi-5">
          <mxGeometry relative="1" as="geometry">
            <Array as="points">
              <mxPoint x="830" y="595" />
              <mxPoint x="830" y="230" />
            </Array>
          </mxGeometry>
        </mxCell>
        <mxCell id="M6g0nOuOq8iYQuEYcsVi-28" value="&lt;font style=&quot;font-size: 20px;&quot;&gt;图数据导入接口&lt;/font&gt;" style="rounded=1;whiteSpace=wrap;html=1;fillColor=#f8cecc;strokeColor=#b85450;fontSize=20;" vertex="1" parent="1">
          <mxGeometry x="527.5" y="570" width="140" height="50" as="geometry" />
        </mxCell>
        <mxCell id="M6g0nOuOq8iYQuEYcsVi-75" value="&lt;font style=&quot;font-size: 24px;&quot;&gt;图查询任务&lt;br&gt;&lt;br&gt;&lt;br&gt;&lt;br&gt;&lt;br&gt;&lt;/font&gt;" style="rounded=0;whiteSpace=wrap;html=1;dashed=1;strokeWidth=3;glass=0;fillColor=#d5e8d4;strokeColor=#000000;" vertex="1" parent="1">
          <mxGeometry x="427.5" y="760" width="332.5" height="160" as="geometry" />
        </mxCell>
        <mxCell id="M6g0nOuOq8iYQuEYcsVi-73" value="关键路径分析" style="rounded=1;whiteSpace=wrap;html=1;fillColor=#f8cecc;strokeColor=#b85450;fontSize=20;" vertex="1" parent="1">
          <mxGeometry x="440" y="800" width="140" height="50" as="geometry" />
        </mxCell>
        <mxCell id="M6g0nOuOq8iYQuEYcsVi-76" value="&lt;font style=&quot;font-size: 20px;&quot;&gt;自定义图查询&lt;/font&gt;" style="rounded=1;whiteSpace=wrap;html=1;fillColor=#f8cecc;strokeColor=#b85450;fontSize=20;" vertex="1" parent="1">
          <mxGeometry x="600" y="800" width="140" height="50" as="geometry" />
        </mxCell>
        <mxCell id="M6g0nOuOq8iYQuEYcsVi-77" value="&lt;font style=&quot;font-size: 20px;&quot;&gt;实体查询&lt;/font&gt;" style="rounded=1;whiteSpace=wrap;html=1;fillColor=#f8cecc;strokeColor=#b85450;fontSize=20;" vertex="1" parent="1">
          <mxGeometry x="523.75" y="860" width="140" height="50" as="geometry" />
        </mxCell>
        <mxCell id="M6g0nOuOq8iYQuEYcsVi-89" value="&lt;font style=&quot;font-size: 24px;&quot;&gt;图计算任务&lt;br&gt;&lt;br&gt;&lt;br&gt;&lt;br&gt;&lt;br&gt;&lt;/font&gt;" style="rounded=0;whiteSpace=wrap;html=1;dashed=1;strokeWidth=3;glass=0;fillColor=#d5e8d4;strokeColor=#000000;" vertex="1" parent="1">
          <mxGeometry x="790" y="760" width="332.5" height="160" as="geometry" />
        </mxCell>
        <mxCell id="M6g0nOuOq8iYQuEYcsVi-84" value="&lt;font style=&quot;font-size: 20px;&quot;&gt;Pagerank&lt;/font&gt;" style="rounded=1;whiteSpace=wrap;html=1;fillColor=#f8cecc;strokeColor=#b85450;fontSize=20;" vertex="1" parent="1">
          <mxGeometry x="870" y="860" width="150" height="50" as="geometry" />
        </mxCell>
        <mxCell id="M6g0nOuOq8iYQuEYcsVi-85" value="实体相似度计算" style="rounded=1;whiteSpace=wrap;html=1;fillColor=#f8cecc;strokeColor=#b85450;fontSize=20;" vertex="1" parent="1">
          <mxGeometry x="870" y="800" width="150" height="50" as="geometry" />
        </mxCell>
        <mxCell id="M6g0nOuOq8iYQuEYcsVi-98" style="edgeStyle=orthogonalEdgeStyle;rounded=0;orthogonalLoop=1;jettySize=auto;html=1;exitX=0.5;exitY=0;exitDx=0;exitDy=0;entryX=0.5;entryY=1;entryDx=0;entryDy=0;" edge="1" parent="1" source="M6g0nOuOq8iYQuEYcsVi-96" target="M6g0nOuOq8iYQuEYcsVi-5">
          <mxGeometry relative="1" as="geometry" />
        </mxCell>
        <mxCell id="M6g0nOuOq8iYQuEYcsVi-96" value="&lt;font style=&quot;&quot;&gt;&lt;font style=&quot;font-size: 24px;&quot;&gt;缓存数据库&lt;br&gt;&lt;br&gt;&lt;/font&gt;&lt;font style=&quot;font-size: 24px;&quot;&gt;Redis&lt;/font&gt;&lt;br&gt;&lt;/font&gt;" style="rounded=0;whiteSpace=wrap;html=1;fillColor=#d5e8d4;strokeColor=#82b366;" vertex="1" parent="1">
          <mxGeometry x="880" y="410" width="260" height="220" as="geometry" />
        </mxCell>
      </root>
    </mxGraphModel>
  </diagram>
</mxfile>
